<svg id="Group_1" data-name="Group 1" xmlns="http://www.w3.org/2000/svg" xmlns:xlink="http://www.w3.org/1999/xlink" width="552.456" height="124.159" viewBox="0 0 552.456 124.159">
  <defs>
    <clipPath id="clip-path">
      <rect id="Rectangle_2" data-name="Rectangle 2" width="552.456" height="124.159" fill="none"/>
    </clipPath>
  </defs>
  <g id="Group_1-2" data-name="Group 1" clip-path="url(#clip-path)">
    <path id="Path_56" data-name="Path 56" d="M729.805.5q1.6,0,3.195,0,.01,61.945,0,123.891h-3.195q-.01-61.94,0-123.887" transform="translate(-484.115 -0.328)" fill="#fff"/>
    <path id="Path_57" data-name="Path 57" d="M36.866,5.244a61.783,61.783,0,0,1,69.518,13.8,12.74,12.74,0,0,1,4.154,7.982,12.386,12.386,0,0,1-4.292,10.884,12.534,12.534,0,0,1-14.5,1.131c-1.862-1.1-3.2-2.845-4.76-4.3a36.971,36.971,0,1,0-40.055,60.9,37.849,37.849,0,0,0,20.334,2.781,58.668,58.668,0,0,1-45.808.461c-5.019-1.969-9.517-4.979-14.069-7.82A61.748,61.748,0,0,1,36.866,5.244" transform="translate(0 0)" fill="#fff"/>
    <path id="Path_58" data-name="Path 58" d="M316.582,14.778C320.557,6.1,330.314.763,339.743,1.349A24.676,24.676,0,0,1,360.6,14.768q26.819,51.412,53.628,102.827c1.185,2.373,2.535,4.673,3.619,7.1a37.789,37.789,0,0,1-17.57-1.764,37.139,37.139,0,0,1-16.415-11.564c-3.343-3.993-5.356-8.84-7.827-13.368q-18.75-35.9-37.476-71.821Q328.23,46.191,317.726,66.13A66.345,66.345,0,0,0,283.637,78c10.928-21.1,21.97-42.145,32.945-63.223" transform="translate(-188.15 -0.866)" fill="#fff"/>
    <path id="Path_59" data-name="Path 59" d="M115.666,216.529a61.855,61.855,0,0,1,36.614-13.618,59.915,59.915,0,0,1,34.456,9.379,62.746,62.746,0,0,1,18.135,17.59,65.225,65.225,0,0,0-18.277-8.016c-18.321-4.753-38.634.074-53.221,12.025-5.363,4.74-10.079,10.288-16.183,14.133a61.779,61.779,0,0,1-84.684-16.577,61.649,61.649,0,0,0,71.639-4.225c4.114-3.266,7.41-7.427,11.52-10.692" transform="translate(-21.564 -134.57)" fill="#4fc2b8"/>
    <path id="Path_60" data-name="Path 60" d="M1307.187,2.621a11.654,11.654,0,0,1,9.948,2.784,10.862,10.862,0,0,1,1.175,14.264c-3.646,4.986-11.571,5.7-16.24,1.774A10.834,10.834,0,0,1,1298.9,9.455a10.7,10.7,0,0,1,8.288-6.834m-.364,1.986a8.849,8.849,0,0,0-5.353,3.989,8.939,8.939,0,0,0,1.424,11,9.489,9.489,0,0,0,13.244-.367,8.94,8.94,0,0,0-.717-12.756,9.6,9.6,0,0,0-8.6-1.865" transform="translate(-861.19 -1.616)" fill="#fff"/>
    <path id="Path_61" data-name="Path 61" d="M793.8,3.505c.673,0,1.35,0,2.03.007-.013,6.928,0,13.853-.007,20.781H793.8q-.005-10.392,0-20.788" transform="translate(-526.565 -2.325)" fill="#fff"/>
    <path id="Path_62" data-name="Path 62" d="M817.55,3.485c.63,0,1.259,0,1.9-.01,5.053,5.986,10.019,12.049,15.031,18.071-.027-6.019,0-12.039-.013-18.058.643,0,1.289,0,1.939-.007V24.273c-.677,0-1.35,0-2.02,0Q826.94,15.3,819.489,6.337q-.01,8.968,0,17.937h-1.939q.005-10.4,0-20.788" transform="translate(-542.319 -2.305)" fill="#fff"/>
    <path id="Path_63" data-name="Path 63" d="M892.325,3.289a15.1,15.1,0,0,1,11.022,1.858c-.337.525-.687,1.047-1.037,1.562a12.117,12.117,0,0,0-10.221-1.417,3.51,3.51,0,0,0-2.548,2.787,3.093,3.093,0,0,0,1.929,3.057c3.383,1.629,7.45,1.387,10.638,3.491,2.41,1.549,2.535,5.4.488,7.3a9.271,9.271,0,0,1-6.44,2.165,17.7,17.7,0,0,1-9.689-2.444c.343-.522.7-1.034,1.067-1.545a16.233,16.233,0,0,0,10.022,2.111,5.993,5.993,0,0,0,3.656-1.68,3,3,0,0,0-.508-4.555c-3.558-2.013-8.083-1.538-11.443-3.993a4.639,4.639,0,0,1-.933-6.346,6.984,6.984,0,0,1,4-2.353" transform="translate(-588.037 -1.951)" fill="#fff"/>
    <path id="Path_64" data-name="Path 64" d="M944.052,3.505h17.674c0,.616,0,1.236,0,1.852H953.9V24.293c-.65,0-1.3,0-1.939,0q.005-9.463,0-18.93-3.954-.005-7.908,0c0-.616,0-1.236,0-1.852" transform="translate(-626.235 -2.325)" fill="#fff"/>
    <path id="Path_65" data-name="Path 65" d="M1007.309,3.495c.64,0,1.283,0,1.932,0q0,10.392,0,20.785c-.65,0-1.3,0-1.939,0q0-10.4,0-20.792" transform="translate(-668.195 -2.318)" fill="#fff"/>
    <path id="Path_66" data-name="Path 66" d="M1024.049,3.495q8.837.005,17.674,0c-.007.619,0,1.239,0,1.855q-3.954,0-7.908,0-.005,9.463,0,18.93c-.65,0-1.3,0-1.939,0V5.35h-7.827c0-.619-.007-1.236,0-1.855" transform="translate(-679.3 -2.318)" fill="#fff"/>
    <path id="Path_67" data-name="Path 67" d="M1086.041,3.495q1.005.005,2.02,0,.005,5.858,0,11.712c.067,2.205.72,4.612,2.525,6.036a8.33,8.33,0,0,0,5.955,1.38,6.525,6.525,0,0,0,4.713-2.373,8.712,8.712,0,0,0,1.538-5.067q-.01-5.843-.007-11.689h2.027c-.01,3.9.007,7.8-.01,11.7-.084,2.656-.868,5.5-2.962,7.285-2.461,2.08-5.959,2.336-9.012,1.788a7.723,7.723,0,0,1-5.619-4.114c-1.488-3-1.121-6.44-1.168-9.679q0-3.494,0-6.985" transform="translate(-720.419 -2.318)" fill="#fff"/>
    <path id="Path_68" data-name="Path 68" d="M1151.3,3.495q8.882.005,17.758,0c0,.616,0,1.236,0,1.852-2.639,0-5.275,0-7.911,0V24.287c-.653,0-1.3,0-1.939,0q.01-9.468,0-18.933-3.959,0-7.911,0-.005-.929,0-1.858" transform="translate(-763.714 -2.318)" fill="#fff"/>
    <path id="Path_69" data-name="Path 69" d="M1214.8,3.495q7.994.005,15.991,0c-.007.593-.007,1.182,0,1.774-4.683-.007-9.366,0-14.048,0-.01,2.3,0,4.6,0,6.9,3.508.01,7.016,0,10.524.007-.007.589-.007,1.175-.007,1.764H1216.74v8.585h14.139q-.01.884,0,1.767H1214.8q0-10.4,0-20.792" transform="translate(-805.839 -2.318)" fill="#fff"/>
    <path id="Path_70" data-name="Path 70" d="M1378.55,3.5q7.7-.005,15.4,0-.01.929,0,1.858-6.736-.005-13.466,0-.005,3.409,0,6.817h9.847q-.01.884,0,1.767h-9.844q-.01,5.176,0,10.352c-.653,0-1.3,0-1.939,0q.005-10.392,0-20.785" transform="translate(-914.458 -2.318)" fill="#fff"/>
    <path id="Path_71" data-name="Path 71" d="M1243.857,321.492c3.878-7.241,7.8-14.459,11.685-21.7,3.8,7.245,7.666,14.462,11.48,21.7q-1.076-.005-2.134,0c-.936-1.73-1.814-3.488-2.73-5.225-4.451.02-8.9,0-13.348.01-.922,1.747-1.831,3.5-2.791,5.221q-1.091-.01-2.161-.01m5.871-6.9q5.747.005,11.5,0c-1.825-3.693-3.811-7.3-5.7-10.961q-2.929,5.464-5.8,10.958" transform="translate(-825.112 -198.869)" fill="#fff"/>
    <path id="Path_72" data-name="Path 72" d="M798.905,301.459a11.745,11.745,0,0,1,9.773,2.242,10.849,10.849,0,0,1,2.188,14.075c-2.734,4.4-8.689,6.013-13.453,4.282a10.625,10.625,0,0,1-6.561-6.733,10.852,10.852,0,0,1,1.559-9.746,10.654,10.654,0,0,1,6.494-4.121m.236,1.848a8.895,8.895,0,0,0-3.127,15.9,9.583,9.583,0,0,0,11.3-.35,8.886,8.886,0,0,0-1.461-14.745,9.889,9.889,0,0,0-6.709-.808" transform="translate(-524.263 -199.802)" fill="#fff"/>
    <path id="Path_73" data-name="Path 73" d="M870.547,302.257q7.7-.01,15.405,0c0,.616,0,1.236,0,1.855q-6.731-.01-13.463,0,0,3.409,0,6.817,4.924-.005,9.847,0-.005.879,0,1.767h-9.847c0,3.451,0,6.9,0,10.355-.646,0-1.293,0-1.932,0q-.005-10.392,0-20.785" transform="translate(-577.477 -200.499)" fill="#fff"/>
    <path id="Path_74" data-name="Path 74" d="M946.8,302.255h17.674c0,.616-.007,1.232,0,1.852-2.609,0-5.218,0-7.827,0v18.933c-.65,0-1.293,0-1.932,0q-.01-9.468,0-18.94-3.959,0-7.911,0c-.007-.619,0-1.236,0-1.852" transform="translate(-628.056 -200.501)" fill="#fff"/>
    <path id="Path_75" data-name="Path 75" d="M1010.053,302.245c.646,0,1.3.007,1.959.034-.051,2.878-.01,5.757-.024,8.635q7.11.01,14.224,0v-8.669c.64,0,1.286,0,1.936,0q0,10.4,0,20.792c-.653,0-1.3,0-1.936,0q0-5.131,0-10.268-7.115,0-14.224,0c0,3.42,0,6.841,0,10.264-.646,0-1.293,0-1.929.007-.017-6.935,0-13.867-.007-20.8" transform="translate(-670.017 -200.494)" fill="#fff"/>
    <path id="Path_76" data-name="Path 76" d="M1081.8,302.255h15.991c-.007.589-.007,1.175,0,1.767h-14.055v6.9h10.517c0,.582,0,1.165.017,1.747-3.511.044-7.023.007-10.534.024,0,2.858-.007,5.72,0,8.581q7.07-.005,14.136,0c-.007.589-.007,1.178,0,1.771-5.353.007-10.706-.027-16.055.017-.047-6.938-.007-13.873-.02-20.808" transform="translate(-717.61 -200.501)" fill="#fff"/>
    <path id="Path_77" data-name="Path 77" d="M1168.794,302.228c.636,0,1.279,0,1.929,0q4.651,8.741,9.292,17.492c3.134-5.831,6.221-11.692,9.389-17.506.613.01,1.235.013,1.862.017V323.02c-.653,0-1.3-.007-1.939-.007.007-5.632-.007-11.261.007-16.893-3.114,5.78-6.147,11.6-9.328,17.348q-4.636-8.67-9.285-17.331c.02,5.629.007,11.258.01,16.886-.653-.007-1.3-.01-1.942-.02.017-6.925,0-13.85.007-20.775" transform="translate(-775.314 -200.474)" fill="#fff"/>
    <path id="Path_78" data-name="Path 78" d="M1320.8,302.252c.667,0,1.343,0,2.023.007q-.01,9.5,0,19.014,6.393,0,12.786,0c0,.579.01,1.161.027,1.744-4.945.054-9.891.013-14.836.02q.005-10.392,0-20.785" transform="translate(-876.15 -200.498)" fill="#fff"/>
    <path id="Path_79" data-name="Path 79" d="M1376.054,302.214c3.266.088,6.555-.209,9.8.212a10.969,10.969,0,0,1,6.874,3.713,10.851,10.851,0,0,1,1.161,11.15,10.077,10.077,0,0,1-6.8,5.262c-3.622.828-7.366.3-11.042.451q-.005-10.392,0-20.788m1.932,1.771q.01,8.625,0,17.25c3.834-.114,8.066.586,11.463-1.643,4.781-3.033,4.669-11.136-.192-14.038-3.38-2.084-7.5-1.478-11.274-1.569" transform="translate(-912.804 -200.46)" fill="#fff"/>
    <path id="Path_80" data-name="Path 80" d="M1446.305,302.252c.64,0,1.286,0,1.939,0q-.005,10.4,0,20.788c-.65,0-1.3,0-1.932,0q-.01-10.4,0-20.792" transform="translate(-959.405 -200.498)" fill="#fff"/>
    <path id="Path_81" data-name="Path 81" d="M1460.557,302.252c.724,0,1.458,0,2.192,0q4.434,8.888,8.881,17.768c2.932-5.922,5.844-11.853,8.79-17.768.71,0,1.421,0,2.145,0-3.656,7.191-7.255,14.415-10.887,21.62-3.794-7.161-7.43-14.405-11.12-21.62" transform="translate(-968.86 -200.498)" fill="#fff"/>
    <path id="Path_82" data-name="Path 82" d="M1534.305,302.255q7.994.005,15.994,0c-.01.586-.01,1.175-.007,1.764h-14.048q-.005,3.449,0,6.9h10.517c-.01.586-.007,1.175,0,1.767h-10.52v8.581q7.07.005,14.136,0c0,.589,0,1.178,0,1.771q-8.034.005-16.072,0-.01-10.4,0-20.792" transform="translate(-1017.78 -200.501)" fill="#fff"/>
    <path id="Path_83" data-name="Path 83" d="M1590.5,304.738a6.723,6.723,0,0,1,4.535-2.744,14.961,14.961,0,0,1,10.685,1.936c-.337.518-.67,1.037-1.007,1.549a12.659,12.659,0,0,0-7.9-1.919,6.765,6.765,0,0,0-4.168,1.643,2.9,2.9,0,0,0,.707,4.413c3.41,1.973,7.719,1.565,11.052,3.73a4.788,4.788,0,0,1,.963,6.9c-1.424,1.747-3.757,2.407-5.915,2.6a18.19,18.19,0,0,1-10.608-2.421c.34-.525.7-1.044,1.067-1.555a16.192,16.192,0,0,0,9.924,2.128,5.711,5.711,0,0,0,4.1-2.124,3.006,3.006,0,0,0-1.077-4.262c-3.481-1.788-7.746-1.481-11.039-3.713a4.6,4.6,0,0,1-1.323-6.161" transform="translate(-1053.961 -200.142)" fill="#fff"/>
    <path id="Path_84" data-name="Path 84" d="M920.967,122.006q6.04-10.852,12.082-21.7c4.013,7.214,7.958,14.466,11.944,21.694-1.67.007-3.34,0-5.006.007-.68-1.3-1.37-2.6-2.084-3.875-3.262,0-6.524,0-9.786,0-.69,1.3-1.36,2.6-2.081,3.878-1.69-.013-3.38-.007-5.07,0m9.241-7.75c1.872.01,3.747-.01,5.622.013-.932-1.761-1.858-3.528-2.834-5.262-.929,1.751-1.879,3.488-2.788,5.248" transform="translate(-610.923 -66.537)" fill="#4fc2b8"/>
    <path id="Path_85" data-name="Path 85" d="M792.012,105.515c4.37-4.885,13.028-4.676,17.132.458-1.208.9-2.39,1.841-3.575,2.774a6.8,6.8,0,0,0-9.12-1.2,6.434,6.434,0,0,0-2.542,6.3,6.288,6.288,0,0,0,3.905,4.9,6.776,6.776,0,0,0,7.814-2.023c1.2.916,2.4,1.841,3.622,2.734-4,5.124-12.493,5.487-16.984.835a10.842,10.842,0,0,1-.253-14.779" transform="translate(-523.534 -67.65)" fill="#4fc2b8"/>
    <path id="Path_86" data-name="Path 86" d="M858.547,103.256c1.542-.007,3.087,0,4.632,0q0,3.873,0,7.743,4.838,0,9.682,0c-.007-2.579,0-5.161,0-7.74,1.545,0,3.09-.01,4.636.01-.017,6.9,0,13.8-.01,20.694h-4.626q-.005-4.419,0-8.837h-9.675q-.01,4.419,0,8.837c-1.545,0-3.091,0-4.632,0q.005-10.352,0-20.7" transform="translate(-569.517 -68.492)" fill="#4fc2b8"/>
    <path id="Path_87" data-name="Path 87" d="M998.547,103.251c3.447-.01,6.9,0,10.345-.007a8.831,8.831,0,0,1,4.764,1.32c2.976,1.949,3.393,6.494,1.431,9.285-1.313,1.717-3.572,2.222-5.615,2.37,2.562,2.589,5.151,5.144,7.713,7.729-2.05-.013-4.1.037-6.154-.013-2.7-2.724-5.181-5.673-7.844-8.443-.017,2.821,0,5.639-.007,8.46-1.545,0-3.091,0-4.632,0q0-10.347,0-20.7m4.636,4.117c-.007,1.656,0,3.313,0,4.969,1.909-.01,3.821.017,5.733-.007a2.591,2.591,0,0,0,2.121-.906c1.1-1.357.374-3.8-1.475-4-2.124-.135-4.252-.013-6.376-.057" transform="translate(-662.386 -68.487)" fill="#4fc2b8"/>
    <path id="Path_88" data-name="Path 88" d="M1057.3,103.253q8.877,0,17.762,0c-.007,1.4,0,2.8-.007,4.2-2.185,0-4.37,0-6.555,0-.017,5.5,0,11-.007,16.5q-2.277.01-4.545,0c0-5.5.01-11-.007-16.5-2.215.01-4.427,0-6.635.007-.014-1.4-.01-2.808-.007-4.211" transform="translate(-701.358 -68.493)" fill="#4fc2b8"/>
    <path id="Path_89" data-name="Path 89" d="M1119.057,103.255h16.412c0,1.4,0,2.8,0,4.2-3.929.007-7.854,0-11.783,0q-.005,1.767,0,3.535h8.248q0,2.02,0,4.04h-8.248q-.005,2.358,0,4.713h11.783c0,1.4,0,2.8,0,4.2q-8.206.005-16.412,0Z" transform="translate(-742.326 -68.494)" fill="#4fc2b8"/>
    <path id="Path_90" data-name="Path 90" d="M1179.8,103.244c3.43-.013,6.858.007,10.288-.01a8.747,8.747,0,0,1,4.774,1.259c3.013,1.865,3.491,6.353,1.653,9.191-1.286,1.808-3.606,2.4-5.7,2.515,2.5,2.619,5.178,5.073,7.615,7.753-2.037,0-4.073-.02-6.107.007-2.663-2.818-5.252-5.706-7.878-8.561-.027,2.848,0,5.7-.01,8.548H1179.8c-.01-6.9,0-13.8-.007-20.7m4.632,4.121c0,1.653,0,3.309,0,4.962,2.017-.01,4.033.03,6.046-.01a2.369,2.369,0,0,0,2.35-2.013,2.418,2.418,0,0,0-2.161-2.915c-2.077-.064-4.154,0-6.231-.024" transform="translate(-782.618 -68.479)" fill="#4fc2b8"/>
    <path id="Path_91" data-name="Path 91" d="M1245.057,103.255h16.412c0,1.4,0,2.8,0,4.2-3.929.007-7.854,0-11.783,0q-.005,1.767,0,3.535,4.166,0,8.332,0-.005,2.02,0,4.04h-8.332q-.005,2.358,0,4.713c3.956,0,7.911,0,11.87,0-.007,1.4-.01,2.8,0,4.195-5.5.02-11,.007-16.5.01Z" transform="translate(-825.908 -68.494)" fill="#4fc2b8"/>
    <path id="Path_92" data-name="Path 92" d="M1306.047,103.089c2.383-.2,4.78-.061,7.171-.1a13.05,13.05,0,0,1,9.015,3.181,10.332,10.332,0,0,1,.579,13.917,12.367,12.367,0,0,1-8.931,3.7q-3.919-.005-7.83,0-.005-10.347,0-20.687m4.548,4.107c0,4.124,0,8.245,0,12.369,2.461,0,5.1.232,7.322-1.037,3.787-2.1,3.552-8.588-.367-10.419-2.151-1.084-4.619-.919-6.952-.912" transform="translate(-866.366 -68.312)" fill="#4fc2b8"/>
    <path id="Path_93" data-name="Path 93" d="M783.307,221.652c4.033-7.245,8.046-14.5,12.119-21.727q5.974,10.862,11.934,21.731c-1.66.02-3.319,0-4.979.013-.71-1.32-1.411-2.646-2.128-3.962-3.249.007-6.5,0-9.746,0-.714,1.313-1.431,2.626-2.114,3.956-1.7,0-3.393.01-5.087-.013m9.214-7.736c1.9.013,3.794.007,5.693,0-.943-1.781-1.9-3.552-2.851-5.326q-1.414,2.666-2.841,5.322" transform="translate(-519.606 -132.62)" fill="#4fc2b8"/>
    <path id="Path_94" data-name="Path 94" d="M1260.285,200.459c.054-.01.162-.034.219-.044,3.932,7.194,7.9,14.368,11.84,21.566-1.663.02-3.323,0-4.979.013-.724-1.313-1.421-2.643-2.131-3.959-3.262.01-6.521-.02-9.78.013-.673,1.326-1.411,2.616-2.081,3.939-1.7,0-3.4,0-5.1,0,3.993-7.181,7.965-14.375,12.008-21.532m-2.784,13.782c1.9.013,3.794,0,5.693,0q-1.429-2.661-2.852-5.326-1.429,2.656-2.841,5.322" transform="translate(-828.044 -132.945)" fill="#4fc2b8"/>
    <path id="Path_95" data-name="Path 95" d="M857.134,205.173c4.343-4.942,13.049-4.794,17.173.353-1.155.966-2.357,1.868-3.545,2.787a6.769,6.769,0,0,0-5.282-2.407,6.441,6.441,0,0,0-6.013,4.033,6.511,6.511,0,0,0,2.121,7.6,6.8,6.8,0,0,0,9.234-1.229c1.205.916,2.407,1.838,3.622,2.744-4.148,5.309-13.106,5.464-17.455.33a10.886,10.886,0,0,1,.145-14.21" transform="translate(-566.781 -133.708)" fill="#4fc2b8"/>
    <path id="Path_96" data-name="Path 96" d="M921.23,205.23c4.329-5.026,13.069-4.855,17.247.283-1.168.956-2.377,1.865-3.558,2.8a6.812,6.812,0,0,0-10.167-.252,6.6,6.6,0,0,0,.353,8.958,6.844,6.844,0,0,0,9.874-.707c1.188.933,2.41,1.821,3.612,2.737-4.013,5.1-12.5,5.487-16.987.818a10.825,10.825,0,0,1-.374-14.641" transform="translate(-609.328 -133.703)" fill="#4fc2b8"/>
    <path id="Path_97" data-name="Path 97" d="M992.215,201.937c4.814-1.407,10.574.539,13.049,5.023a11.027,11.027,0,0,1,.219,10.231,10.828,10.828,0,0,1-7.686,5.683,11.453,11.453,0,0,1-11.342-4.1,10.9,10.9,0,0,1-1.064-11.207,10.753,10.753,0,0,1,6.824-5.625m1.683,4.077a6.463,6.463,0,0,0-4.592,8.507c1.236,3.838,6.319,5.427,9.648,3.279a6.541,6.541,0,0,0,1.979-9.123,6.632,6.632,0,0,0-7.036-2.663" transform="translate(-652.946 -133.656)" fill="#4fc2b8"/>
    <path id="Path_98" data-name="Path 98" d="M1149.531,202.753q2.267-.01,4.545,0,0,10.392,0,20.785h-4.484q-5.211-6.908-10.413-13.823-.005,6.913,0,13.823-2.318,0-4.629,0-.005-10.392,0-20.781c1.522,0,3.043-.017,4.568.01q5.2,6.959,10.419,13.89-.01-6.948,0-13.9" transform="translate(-752.601 -134.492)" fill="#4fc2b8"/>
    <path id="Path_99" data-name="Path 99" d="M1201.8,202.745c5.888-.01,11.773.007,17.661-.01.02,1.4.01,2.808.014,4.215h-6.565q0,8.292,0,16.58h-4.541q-.005-8.292,0-16.58H1201.8q0-2.106,0-4.2" transform="translate(-797.213 -134.484)" fill="#4fc2b8"/>
    <path id="Path_100" data-name="Path 100" d="M1393.017,202.757q8.888-.01,17.772,0c0,1.4,0,2.8,0,4.2h-6.565q0,8.292,0,16.58h-4.541c-.01-5.528,0-11.052,0-16.58h-6.565c.034-1.4-.074-2.8-.1-4.2" transform="translate(-924.057 -134.496)" fill="#4fc2b8"/>
    <path id="Path_101" data-name="Path 101" d="M1451.165,204.937a8.6,8.6,0,0,1,6.885-2.976,16.306,16.306,0,0,1,8.477,2.2c-.758,1.222-1.555,2.417-2.34,3.619a10.022,10.022,0,0,0-7.117-1.5,2.445,2.445,0,0,0-1.865,1.316,1.7,1.7,0,0,0,1.192,2.158c2.845,1.054,6.141.953,8.672,2.8a5.6,5.6,0,0,1,.414,8.379,9.711,9.711,0,0,1-6.757,2.34,18.293,18.293,0,0,1-9.44-2.454c.821-1.212,1.673-2.4,2.495-3.616a14.05,14.05,0,0,0,7.581,1.868,3.561,3.561,0,0,0,2.72-1.188,1.569,1.569,0,0,0-.737-2.4c-2.885-1.138-6.235-1.037-8.851-2.862a5.483,5.483,0,0,1-1.33-7.686" transform="translate(-961.384 -133.966)" fill="#4fc2b8"/>
    <path id="Path_102" data-name="Path 102" d="M1061.284,202.748c1.538,0,3.08,0,4.622,0,.037,3.747-.04,7.5.04,11.241.064,1.963.791,4.249,2.767,5.053,2.182.855,5.178.643,6.625-1.421a7.012,7.012,0,0,0,1.013-3.922q-.01-5.474,0-10.948c1.569,0,3.138,0,4.71,0,.01,3.653,0,7.3,0,10.955-.027,2.8-.825,5.787-2.966,7.719-2.313,2.178-5.746,2.629-8.78,2.252a8.463,8.463,0,0,1-6.565-4.08c-1.66-2.787-1.481-6.151-1.468-9.271Z" transform="translate(-703.994 -134.491)" fill="#4fc2b8"/>
    <path id="Path_103" data-name="Path 103" d="M1325.809,223.537q-.01-10.392,0-20.788h4.589q5.191,6.913,10.389,13.826,0-6.913,0-13.826c1.538,0,3.08,0,4.625,0q.015,10.392,0,20.788-2.267.005-4.525,0-5.232-6.938-10.456-13.877,0,6.938,0,13.88c-1.545,0-3.087,0-4.625,0" transform="translate(-879.473 -134.491)" fill="#4fc2b8"/>
  </g>
</svg>
