<svg id="Logo-1" xmlns="http://www.w3.org/2000/svg" width="552.328" height="124.159" viewBox="0 0 552.328 124.159">
  <path id="Path_8" data-name="Path 8" d="M175.834,50.458a60.087,60.087,0,0,0-32.408-9.68A60.849,60.849,0,0,0,123.645,44a60.074,60.074,0,0,0-19.08,10.522c-1.263.982-9.82,9.4-11.925,11.083a62.21,62.21,0,0,1-28.2,12.346H64.3a58.007,58.007,0,0,1-9.82.842,61.457,61.457,0,0,1-26.516-6.033c-.7-.281-1.4-.7-1.964-.982s-1.263-.7-1.824-.982A61.645,61.645,0,0,1,3.835,52.282a52.62,52.62,0,0,0,6.173,3.367,61.185,61.185,0,0,0,26.515,6.033A60.846,60.846,0,0,0,56.3,58.455,60.066,60.066,0,0,0,78.331,45.408c.28-.281,5.471-5.471,6.453-6.313a62.812,62.812,0,0,1,21.044-12.205,60.943,60.943,0,0,1,9.961-2.525c1.543-.281,3.227-.421,4.77-.561,1.684-.14,3.367-.14,5.051-.14A60.912,60.912,0,0,1,175.834,50.458Z" transform="translate(7.238 44.66)" fill="#fff"/>
  <path id="Path_9" data-name="Path 9" d="M92.022,22.658a10.784,10.784,0,0,1,11.083-10.8,11.547,11.547,0,0,1,8.7,3.928L108.3,18.449a6.529,6.529,0,0,0-5.191-2.385,6.455,6.455,0,1,0,0,12.907,6.449,6.449,0,0,0,5.191-2.525l3.507,2.665a11.076,11.076,0,0,1-8.838,4.069A10.356,10.356,0,0,1,92.022,22.658Z" transform="translate(173.684 22.376)" fill="#fff"/>
  <path id="Path_10" data-name="Path 10" d="M100.087,12h4.49v7.716h9.82V12h4.49V32.624H114.4V23.786h-9.682v8.838h-4.629Z" transform="translate(188.907 22.651)" fill="#fff"/>
  <path id="Path_11" data-name="Path 11" d="M119.349,11.71l11.925,21.605h-4.911l-2.1-3.928h-9.82l-2.1,3.928h-4.909ZM122.294,25.6l-2.945-5.472L116.4,25.6Z" transform="translate(202.755 22.101)" fill="#fff"/>
  <path id="Path_12" data-name="Path 12" d="M128.9,32.765l-8-8.7v8.7h-4.487V12h9.82c4.77,0,7.857,2.385,7.857,6.594,0,4.069-2.385,6.173-6.875,6.313l7.857,7.856Zm-7.857-11.5h5.61c1.686,0,2.807-.842,2.807-2.525s-1.12-2.525-2.807-2.525h-5.61Z" transform="translate(219.721 22.651)" fill="#fff"/>
  <path id="Path_13" data-name="Path 13" d="M129.907,16.118h-6.595V12.05h17.677v4.069h-6.595V32.673h-4.487Z" transform="translate(232.742 22.743)" fill="#fff"/>
  <path id="Path_14" data-name="Path 14" d="M130.6,12h16.274V16.07H135.083v3.647h8.278v3.928h-8.278v4.77h11.787v4.068H130.454V12Z" transform="translate(246.222 22.651)" fill="#fff"/>
  <path id="Path_15" data-name="Path 15" d="M150.082,32.765l-8-8.7v8.7H137.6V12h9.82c4.77,0,7.857,2.385,7.857,6.594,0,4.069-2.385,6.173-6.875,6.313l7.857,7.856Zm-8-11.5H147.7c1.683,0,2.807-.842,2.807-2.525s-1.123-2.525-2.807-2.525h-5.613Z" transform="translate(259.704 22.651)" fill="#fff"/>
  <path id="Path_16" data-name="Path 16" d="M145.27,12h16.274V16.07H149.757v3.647h8.278v3.928h-8.278v4.77h11.786v4.068H145.128V12Z" transform="translate(273.918 22.651)" fill="#fff"/>
  <path id="Path_17" data-name="Path 17" d="M152.27,12h7.014c7.438,0,12.067,4.349,12.067,10.382s-4.629,10.382-12.067,10.382H152.27ZM159.284,28.7c5.192,0,7.577-2.385,7.577-6.173s-2.385-6.313-7.577-6.313H156.76V28.7Z" transform="translate(287.398 22.651)" fill="#fff"/>
  <path id="Path_18" data-name="Path 18" d="M103.406,23.322l11.925,21.605h-4.91L108.317,41H98.5l-2.1,3.928H91.341Zm2.806,13.889-2.946-5.471-2.946,5.471Z" transform="translate(172.4 44.019)" fill="#fff"/>
  <path id="Path_19" data-name="Path 19" d="M99.65,34.27a10.784,10.784,0,0,1,11.082-10.8,11.55,11.55,0,0,1,8.7,3.928l-3.508,2.665a6.53,6.53,0,0,0-5.192-2.385,6.455,6.455,0,1,0,0,12.907,6.45,6.45,0,0,0,5.192-2.525l3.508,2.666a11.076,11.076,0,0,1-8.838,4.068A10.356,10.356,0,0,1,99.65,34.27Z" transform="translate(188.082 44.294)" fill="#fff"/>
  <path id="Path_20" data-name="Path 20" d="M107.132,34.27a10.785,10.785,0,0,1,11.085-10.8,11.549,11.549,0,0,1,8.7,3.928l-3.508,2.665a6.524,6.524,0,0,0-5.189-2.385,6.454,6.454,0,1,0,5.189,10.382l3.508,2.666a11.076,11.076,0,0,1-8.838,4.068A10.356,10.356,0,0,1,107.132,34.27Z" transform="translate(202.204 44.294)" fill="#fff"/>
  <path id="Path_21" data-name="Path 21" d="M114.76,34.27a11.087,11.087,0,1,1,11.085,10.8A10.785,10.785,0,0,1,114.76,34.27Zm17.677,0a6.595,6.595,0,1,0-6.592,6.454A6.3,6.3,0,0,0,132.437,34.27Z" transform="translate(216.601 44.294)" fill="#fff"/>
  <path id="Path_22" data-name="Path 22" d="M123.749,34.184V23.662h4.49V34.184c0,3.928,1.542,6.173,5.33,6.173s5.33-2.245,5.33-6.173V23.662h4.631V34.184c0,6.313-3.367,10.382-9.82,10.382C127.116,44.566,123.749,40.638,123.749,34.184Z" transform="translate(233.567 44.66)" fill="#fff"/>
  <path id="Path_23" data-name="Path 23" d="M132.3,23.614h4.49l10.522,14.029V23.614H151.8V44.237h-4.487L136.791,30.207V44.237H132.3Z" transform="translate(249.708 44.569)" fill="#fff"/>
  <path id="Path_24" data-name="Path 24" d="M146.718,27.731h-6.595V23.662H157.8v4.069H151.2V44.285h-4.487Z" transform="translate(264.472 44.66)" fill="#fff"/>
  <path id="Path_25" data-name="Path 25" d="M157.539,23.322l11.925,21.605h-4.911L162.448,41h-9.82l-2.1,3.928h-4.909Zm2.8,13.889L157.4,31.74l-2.945,5.471Z" transform="translate(274.836 44.019)" fill="#fff"/>
  <path id="Path_26" data-name="Path 26" d="M154.6,23.614h4.487l10.522,14.029V23.614h4.49V44.237h-4.49L159.09,30.207V44.237H154.6Z" transform="translate(291.802 44.569)" fill="#fff"/>
  <path id="Path_27" data-name="Path 27" d="M169.066,27.731h-6.592V23.662h17.677v4.069h-6.595V44.285h-4.49Z" transform="translate(306.658 44.66)" fill="#fff"/>
  <path id="Path_28" data-name="Path 28" d="M169.033,42.456l2.385-3.507a13.646,13.646,0,0,0,6.872,1.824c2.246,0,3.65-.842,3.65-2.1.139-1.263-.7-1.683-3.228-2.245l-2.524-.561c-4.631-.982-6.453-3.087-6.453-6.313,0-3.507,3.505-6.032,8-6.032a16.3,16.3,0,0,1,8.137,2.245l-2.244,3.507a10.891,10.891,0,0,0-5.472-1.683c-2.1,0-3.647.7-3.647,2.1,0,1.122.84,1.684,2.945,2.245l2.807.561c4.49.982,6.312,2.806,6.312,6.173,0,3.648-3.367,6.173-8.558,6.173A19,19,0,0,1,169.033,42.456Z" transform="translate(319.037 44.385)" fill="#fff"/>
  <path id="Path_29" data-name="Path 29" d="M88.16.049H85.073V123.927H88.16Z" transform="translate(160.569 0.092)" fill="#fff"/>
  <path id="Path_30" data-name="Path 30" d="M12.757,94.277A61.207,61.207,0,0,0,18.649,97.5a58.153,58.153,0,0,0,43.912,2.665c1.543-.561,3.086-1.122,4.63-1.824a34.126,34.126,0,0,1-5.331.421,37.6,37.6,0,0,1-17.116-4.209A37.033,37.033,0,0,1,61.859,24.692,36.511,36.511,0,0,1,89.076,36.757v.14A12.477,12.477,0,0,0,98.2,40.825a11.949,11.949,0,0,0,7.015-2.245,12.238,12.238,0,0,0,5.331-10.1,11.858,11.858,0,0,0-2.665-7.576l-1.263-1.263A56.536,56.536,0,0,0,94.408,9.68C93,8.838,91.6,8,90.2,7.3A58.181,58.181,0,0,0,61.719,0,61.752,61.752,0,0,0,7.426,91.05Z" transform="translate(0)" fill="#fff"/>
  <path id="Path_31" data-name="Path 31" d="M134.938,61.5,109.4,12.54A24.163,24.163,0,0,0,99.444,3,23.914,23.914,0,0,0,88.08.194h-.14A24.328,24.328,0,0,0,76.576,3a25.492,25.492,0,0,0-8.838,7.576,5.672,5.672,0,0,0-.7,1.263L33.085,76.654a68.107,68.107,0,0,1,16.554-8.418,65.909,65.909,0,0,1,10.382-2.525c1.683-.28,3.367-.421,5.05-.561.7,0,1.263-.14,1.964-.14l9.4-18.1,11.5-22.026,11.5,21.886,26.8,51.347s2.1,3.928,2.806,5.471A38.057,38.057,0,0,0,143.075,118.6a37.161,37.161,0,0,0,18.939,5.191,31.107,31.107,0,0,0,5.191-.421Z" transform="translate(62.445 0.367)" fill="#fff"/>
  <path id="Path_32" data-name="Path 32" d="M92.556.389h1.824V21.012H92.556Z" transform="translate(174.692 0.734)" fill="#fff"/>
  <path id="Path_33" data-name="Path 33" d="M95.325.529h1.824l15.012,18.1V.389h1.822V21.012H112.02L97.149,3.054v18.1H95.325Z" transform="translate(179.919 0.734)" fill="#fff"/>
  <path id="Path_34" data-name="Path 34" d="M112.743,21.384a18.793,18.793,0,0,1-9.4-2.525l.982-1.4a17.144,17.144,0,0,0,8.42,2.245c3.505,0,6.173-1.4,6.173-3.928,0-2.245-1.545-3.086-5.192-3.928l-2.948-.7c-4.207-.982-6.453-2.525-6.453-5.471,0-3.227,3.228-5.331,7.857-5.331a15.212,15.212,0,0,1,8,2.245l-.982,1.4a12.716,12.716,0,0,0-6.875-1.964c-3.508,0-6.032,1.4-6.032,3.648,0,1.964,1.683,3.086,5.05,3.788l2.945.7c4.348.982,6.315,2.525,6.453,5.471C120.88,19.28,117.513,21.384,112.743,21.384Z" transform="translate(195.05 0.642)" fill="#fff"/>
  <path id="Path_35" data-name="Path 35" d="M117.953,2.121H110.1V.437h17.677V2.121h-7.857V21.06h-1.822V2.121Z" transform="translate(207.798 0.825)" fill="#fff"/>
  <path id="Path_36" data-name="Path 36" d="M117.481.389h1.825V21.012h-1.825Z" transform="translate(221.737 0.734)" fill="#fff"/>
  <path id="Path_37" data-name="Path 37" d="M127.282,2.121h-7.857V.437H137.1V2.121h-7.857V21.06H127.42V2.121Z" transform="translate(225.406 0.825)" fill="#fff"/>
  <path id="Path_38" data-name="Path 38" d="M126.665,11.332V.389h1.822V11.332c0,5.331,2.385,8.277,7.435,8.277s7.435-2.946,7.435-8.277V.389h1.966V11.332c0,6.313-3.087,9.961-9.4,9.961C129.749,21.433,126.665,17.645,126.665,11.332Z" transform="translate(239.071 0.734)" fill="#fff"/>
  <path id="Path_39" data-name="Path 39" d="M142.149,2.121h-7.857V.437h17.68V2.121h-7.857V21.06h-1.966Z" transform="translate(253.466 0.825)" fill="#fff"/>
  <path id="Path_40" data-name="Path 40" d="M141.629.389h15.993V2.072H143.454V9.087h10.522V10.77H143.454v8.7h14.169v1.684H141.629Z" transform="translate(267.314 0.734)" fill="#fff"/>
  <path id="Path_41" data-name="Path 41" d="M151.4,11.046a11.086,11.086,0,0,1,22.164,0c0,5.892-4.629,10.662-11.082,10.662A10.587,10.587,0,0,1,151.4,11.046Zm20.2,0a9.192,9.192,0,1,0-9.26,8.979A8.931,8.931,0,0,0,171.6,11.046Z" transform="translate(285.749 0.459)" fill="#fff"/>
  <path id="Path_42" data-name="Path 42" d="M160.724.389h15.292V2.072H162.549V9.087h9.82V10.77h-9.82V21.152h-1.825Z" transform="translate(303.355 0.734)" fill="#fff"/>
  <path id="Path_43" data-name="Path 43" d="M92.167,45.883a11.087,11.087,0,0,1,22.166,0c0,5.892-4.63,10.662-11.083,10.662A10.588,10.588,0,0,1,92.167,45.883Zm20.2,0a9.192,9.192,0,1,0-9.259,8.979A8.931,8.931,0,0,0,112.369,45.883Z" transform="translate(173.958 66.211)" fill="#fff"/>
  <path id="Path_44" data-name="Path 44" d="M101.5,35.275h15.292v1.684H103.321v6.874h9.82v1.684h-9.82V55.9H101.5Z" transform="translate(191.566 66.578)" fill="#fff"/>
  <path id="Path_45" data-name="Path 45" d="M118.245,36.958h-7.857V35.275h17.677v1.684h-7.857V55.9h-1.825V36.958Z" transform="translate(208.349 66.578)" fill="#fff"/>
  <path id="Path_46" data-name="Path 46" d="M117.773,35.275H119.6v8.7h14.31v-8.7h1.822V55.9h-1.822V45.656H119.6V55.9h-1.825Z" transform="translate(222.288 66.578)" fill="#fff"/>
  <path id="Path_47" data-name="Path 47" d="M126.13,35.275h15.994v1.684H127.955v7.014h10.522v1.684H127.955v8.7h14.169v1.684H126.13Z" transform="translate(238.061 66.578)" fill="#fff"/>
  <path id="Path_48" data-name="Path 48" d="M138.107,38.782V55.9h-1.822V35.275h1.822l9.26,17.536,9.4-17.536h1.825V55.9h-1.825V38.922l-9.4,17.4Z" transform="translate(257.228 66.578)" fill="#fff"/>
  <path id="Path_49" data-name="Path 49" d="M156.675,34.983,168.04,56.448h-1.966l-2.665-5.191H149.942l-2.807,5.191h-2.1Zm5.893,14.731-5.893-11.083-5.893,11.083Z" transform="translate(273.733 66.028)" fill="#fff"/>
  <path id="Path_50" data-name="Path 50" d="M154.019,35.275h1.825v18.94h12.765V55.9h-14.59Z" transform="translate(290.699 66.578)" fill="#fff"/>
  <path id="Path_51" data-name="Path 51" d="M160.481,35.275H167.5c7.577,0,11.645,4.489,11.645,10.382,0,5.752-4.21,10.382-11.645,10.382h-7.016Zm7.016,18.94c6.592,0,9.82-3.788,9.82-8.558,0-4.91-3.228-8.7-9.82-8.7h-5.192V54.214Z" transform="translate(302.896 66.578)" fill="#fff"/>
  <path id="Path_52" data-name="Path 52" d="M168.644,35.275h1.825V55.9h-1.825Z" transform="translate(318.303 66.578)" fill="#fff"/>
  <path id="Path_53" data-name="Path 53" d="M170.345,35.275h2.1l8.977,17.817,8.838-17.817h1.963l-10.8,21.465Z" transform="translate(321.514 66.578)" fill="#fff"/>
  <path id="Path_54" data-name="Path 54" d="M178.9,35.275h15.993v1.684H180.721v7.014h10.522v1.684H180.721v8.7h14.169v1.684H178.9Z" transform="translate(337.653 66.578)" fill="#fff"/>
  <path id="Path_55" data-name="Path 55" d="M194.662,56.221a18.794,18.794,0,0,1-9.4-2.525l.982-1.4a17.143,17.143,0,0,0,8.42,2.245c3.505,0,6.032-1.4,6.17-3.928,0-2.245-1.542-3.086-5.189-3.928l-2.948-.7c-4.207-.982-6.453-2.525-6.453-5.471,0-3.227,3.228-5.331,7.857-5.331a15.212,15.212,0,0,1,8,2.245l-.982,1.4a12.716,12.716,0,0,0-6.875-1.964c-3.508,0-6.032,1.4-6.032,3.648,0,1.964,1.683,3.087,5.05,3.788l2.945.7c4.348.982,6.315,2.525,6.453,5.471C202.8,54.117,199.433,56.221,194.662,56.221Z" transform="translate(349.666 66.395)" fill="#fff"/>
</svg>
